# Blender v2.83.2 OBJ File: ''
# www.blender.org
mtllib 318.mtl
o Plane_Plane.003
v -40.000000 0.000000 40.000000
v 40.000000 0.000000 40.000000
v -40.000000 0.000000 -40.000000
v 40.000000 0.000000 -40.000000
vt 0.000000 0.000000
vt 1.000000 0.000000
vt 1.000000 1.000000
vt 0.000000 1.000000
vn 0.0000 1.0000 0.0000
usemtl Diffuse
s off
f 1/1/1 2/2/1 4/3/1 3/4/1
o Cylinder
v -12.590378 14.982598 2.036351
v 12.590378 14.982599 2.036351
v -12.590378 11.393993 -9.008233
v 12.590378 11.393995 -9.008233
v -12.590378 3.623406 -0.378118
v 12.590378 3.623407 -0.378118
vt 1.000000 0.500000
vt 1.000000 1.000000
vt 0.666667 1.000000
vt 0.666667 0.500000
vt 0.333333 1.000000
vt 0.333333 0.500000
vt 0.457846 0.130000
vt 0.250000 0.490000
vt 0.042154 0.130000
vt -0.000000 1.000000
vt -0.000000 0.500000
vt 0.750000 0.490000
vt 0.957846 0.130000
vt 0.542154 0.130000
vn -0.0000 0.9511 -0.3090
vn 0.0000 -0.7431 -0.6691
vn 1.0000 0.0000 0.0000
vn 0.0000 -0.2079 0.9781
vn -1.0000 0.0000 0.0000
usemtl Glass
s off
f 5/5/2 6/6/2 8/7/2 7/8/2
f 7/8/3 8/7/3 10/9/3 9/10/3
f 8/11/4 6/12/4 10/13/4
f 9/10/5 10/9/5 6/14/5 5/15/5
f 5/16/6 7/17/6 9/18/6
o Plane.002_Plane.008
v -40.000000 0.000000 27.080000
v 40.000000 0.000000 27.080000
v -40.000000 40.000000 27.080000
v 40.000000 40.000000 27.080000
vt 0.000000 0.000000
vt 1.000000 0.000000
vt 1.000000 1.000000
vt 0.000000 1.000000
vn 0.0000 0.0000 1.0000
usemtl Diffuse
s off
f 11/19/7 12/20/7 14/21/7 13/22/7
o Plane.001_Plane.009
v -20.000000 16.000000 1.000000
v 20.000000 16.000000 1.000000
v -20.000000 16.000000 -1.000000
v 20.000000 16.000000 -1.000000
vt 0.000000 0.000000
vt 1.000000 0.000000
vt 1.000000 1.000000
vt 0.000000 1.000000
vn 0.0000 1.0000 0.0000
usemtl Material.001
s off
f 15/23/8 16/24/8 18/25/8 17/26/8
